<?xml version="1.0" encoding="UTF-8" standalone="no"?>
<svg
   xmlns:dc="http://purl.org/dc/elements/1.1/"
   xmlns:cc="http://creativecommons.org/ns#"
   xmlns:rdf="http://www.w3.org/1999/02/22-rdf-syntax-ns#"
   xmlns:svg="http://www.w3.org/2000/svg"
   xmlns="http://www.w3.org/2000/svg"
   viewBox="0 0 595.27557 841.88977"
   id="svg36"
   height="841.88977"
   width="595.27557"
   version="1.1">
  <metadata
     id="metadata42">
    <rdf:RDF>
      <cc:Work
         rdf:about="">
        <dc:format>image/svg+xml</dc:format>
        <dc:type
           rdf:resource="http://purl.org/dc/dcmitype/StillImage" />
      </cc:Work>
    </rdf:RDF>
  </metadata>
  <defs
     id="defs40" />
  <g
     id="Layer1000">
    <path
       id="path2"
       style="fill:#6c2c22;fill-rule:evenodd"
       d="m 290.2788,616.6852 c -2.5656,-3.7808 -4.456,-3.3757 -5.6712,-0.2701 -2.4306,-5.2661 -4.9961,-7.2915 -7.4266,-8.6418 -3.5108,6.0763 -7.0215,6.7514 -10.1272,0.8101 -13.908,-23.0899 -32.8121,-24.9803 -60.358,-40.1036 -46.4501,-25.7906 -97.356,-65.7592 -56.9823,-145.6964 -5.4012,-2.2955 -9.5871,-8.5069 -8.1018,-18.7691 2.0255,-13.5029 -4.4559,-20.5244 -12.1526,-22.6849 v 0 c -5.1311,-2.5655 -7.1565,-6.3463 -8.2368,-11.7475 -0.6751,-13.3679 15.6634,-19.0391 23.225,-10.1272 4.9961,6.8865 0.9452,14.7182 -2.7005,16.4736 10.8023,-4.0509 12.2876,-16.7437 11.0723,-51.7162 -0.8101,-24.7103 -3.2407,-41.1839 -7.0215,-49.2856 0.2701,0.8101 0.6752,1.7553 0.9452,2.8356 -0.4051,12.1526 -23.09,14.178 -23.6301,-4.1859 0.9452,-8.2368 6.3464,-12.2877 12.2877,-12.8278 l -0.2701,-0.27 c 29.9765,-2.0255 21.7397,-17.4188 27.0058,-24.3053 4.9961,-9.317 16.7437,-11.3424 25.9256,0.135 4.456,3.7809 8.3718,6.0763 12.2877,7.2916 1.8904,0.6752 3.7808,0.9452 5.6712,1.0802 9.5871,0.5402 19.1742,-5.2661 33.3522,-13.908 36.7651,-16.9376 75.7322,-15.91 116.5301,0 11.3425,6.8865 19.7143,12.0176 27.546,13.503 1.8904,0.405 3.9158,0.5401 5.8062,0.405 5.6713,-0.27 11.3425,-2.8356 17.9589,-8.3718 3.3757,-4.3209 7.1566,-6.6164 10.8023,-7.5616 1.3503,-0.2701 2.4306,-0.2701 3.6458,-0.2701 4.7261,0.2701 8.912,3.1057 11.4775,7.6967 5.2661,6.8865 -3.1057,22.2798 26.8708,24.3053 l -0.135,0.27 c 5.9413,0.5401 11.3424,4.591 12.2876,12.8278 -0.6751,18.3639 -23.225,16.3385 -23.6301,4.1859 0.2701,-1.0803 0.5401,-2.0255 0.9452,-2.8356 -3.7808,8.1017 -6.2113,24.5753 -7.0215,49.2856 -1.2152,34.9725 0.2701,47.6653 11.0724,51.7162 -3.6458,-1.7554 -7.6967,-9.5871 -2.7006,-16.4736 7.4266,-8.9119 23.9002,-3.2407 23.225,10.1272 -1.0802,5.4012 -3.1056,9.182 -8.2367,11.7475 -7.6967,2.1605 -14.1781,9.182 -12.1527,22.6849 1.4854,10.2622 -2.7005,16.4736 -8.1017,18.7691 40.3737,79.9372 -10.6673,119.9058 -56.9823,145.6964 -27.5459,15.1233 -46.45,17.0137 -60.358,40.1036 -3.2407,5.9413 -6.6165,5.2662 -10.1272,-0.8101 -2.4305,1.3503 -4.9961,3.3757 -7.4266,8.6418 -1.2153,-3.1056 -3.1057,-3.5107 -5.6712,0.2701 -1.0803,1.6203 -2.5656,3.7808 -7.4266,6.7514 -4.7261,-2.9706 -6.2114,-5.1311 -7.2916,-6.7514 z M 445.5623,422.7834 Z m -295.8488,0 v 0.135 z m 9.587,-0.5402 z m 276.6747,0 z m -296.794,-45.7748 h -0.6751 c 0,0 1.0802,0 0.6751,0 z m 317.5885,0 h -0.6751 c -0.4051,0 0.5401,0 0.6751,0 z m -315.9682,-0.2701 -1.6203,0.2701 c -0.5401,0 0.5401,0 1.6203,-0.2701 z m 315.2931,0.2701 -1.6204,-0.2701 c 1.0802,0.2701 2.1605,0.2701 1.6204,0.2701 z m -318.8038,-0.1351 0.4051,0.1351 h 0.8102 c -0.5402,0 -0.9453,0 -1.2153,-0.1351 z m 319.4789,0.1351 h 0.8102 l 0.4051,-0.1351 c -0.1351,0 -0.5401,0.1351 -1.2153,0.1351 z m -319.0738,0 c -0.5401,-0.1351 -0.6752,-0.1351 -0.4051,-0.1351 h -0.6752 c 0,0 0.2701,0 0.5402,0 0.135,0.1351 0.27,0.1351 0.5401,0.1351 z m 319.884,0 c 0.5401,-0.1351 1.0802,-0.1351 0.4051,-0.1351 0.27,0 0.135,0 -0.4051,0.1351 z m -321.5044,-0.2701 h 0.1351 l 0.405,0.135 c -0.27,-0.135 -0.405,-0.135 -0.5401,-0.135 z m 322.5846,0.135 0.4051,-0.135 h 0.135 c 0,0 0,0 0,0 0.1351,0 -0.135,0 -0.5401,0.135 z m -316.9133,-0.405 c -0.4051,0.135 -0.6752,0.27 -0.9453,0.27 0.2701,0 0.5402,-0.135 0.9453,-0.27 z m 311.7822,0 c 0.4051,0.135 0.6752,0.27 0.9452,0.27 -0.27,0 -0.6751,-0.135 -0.9452,-0.27 z m -317.5885,0.27 c -0.6751,-0.27 -0.4051,-0.135 0,0 0.135,0 0.2701,0 0.2701,0 -0.2701,0 -0.4051,-0.135 -0.2701,0 z m 323.1247,0 c 0.4051,-0.135 0.9452,-0.27 0.135,0 v 0 c 0.2701,-0.135 0.2701,-0.135 -0.135,0 z m -322.9897,0 -0.8101,-0.27 0.5401,0.135 c 0,0 0.135,0.135 0.27,0.135 z m 323.1247,0 0.8102,-0.27 -0.8102,0.27 c 0,0 0,0 0,0 z m -324.3399,-0.4051 h 0.135 l 0.2701,0.1351 c -0.1351,0 -0.2701,-0.1351 -0.4051,-0.1351 z m 325.1501,0.1351 0.2701,-0.1351 h 0.135 c 0.135,-0.135 -0.135,0 -0.4051,0.1351 z m -325.2852,-0.1351 c -0.5401,-0.27 -0.4051,-0.135 0,0 0.1351,0 0.1351,0 0.2701,0 -0.2701,0 -0.4051,-0.135 -0.2701,0 z m 325.5553,0 c 0.5401,-0.135 0.9452,-0.27 0.135,0 0.4051,-0.135 0.2701,-0.135 -0.135,0 z m -325.4202,0 -0.5402,-0.27 0.4051,0.135 c -0.135,0 -0.135,0 0.1351,0.135 z m 325.5552,0 0.5401,-0.27 -0.5401,0.27 z M 133.645,375.2531 h 0.135 l 0.5401,0.2701 c -0.27,-0.1351 -0.5401,-0.2701 -0.6751,-0.2701 z m 327.3106,0.2701 0.5401,-0.2701 h 0.1351 c -0.1351,0 -0.4051,0.135 -0.6752,0.2701 z M 133.51,375.1181 c 0,0 0.135,0.135 0.27,0.135 -0.27,-0.135 -0.4051,-0.135 -0.27,-0.135 z m 328.2558,0 c 0.135,0 -0.135,0 -0.2701,0.135 0.2701,-0.135 0.4051,-0.135 0.2701,-0.135 z m 0,0 c 0.27,-0.135 0.27,-0.135 0,0 l -0.135,0.135 c 0,-0.135 0.135,-0.135 0.135,-0.135 z m -328.1208,0.135 -0.2701,-0.135 c -0.27,-0.2701 -0.135,-0.135 0.1351,0 0,0 0,0 0.135,0.135 z m -0.9452,-0.6751 v 0 c 0,0 0,0 0,0 v 0 l 0.6751,0.5401 c -0.27,-0.2701 -0.5401,-0.5401 -0.6751,-0.5401 z m 329.066,0.5401 0.8102,-0.5401 c 0.27,-0.1351 0.27,-0.2701 0,0 v 0 0 c 0,0 -0.2701,0.135 -0.8102,0.5401 z m -329.201,-0.6752 c 0,0 0.135,0.1351 0.135,0.1351 -0.2701,-0.1351 -0.2701,-0.2701 -0.135,-0.1351 z m 330.0112,0.1351 v 0 c 0.5401,-0.5402 1.0802,-1.2153 0,0 0.135,-0.1351 0,0 0,0 z m -329.8762,0 c -0.135,-0.1351 -0.135,-0.1351 -0.135,-0.1351 -0.2701,-0.135 -0.1351,-0.135 0.135,0.1351 0,0 0,0 0,0 z m 329.8762,0 v 0 c 0,0 0,0 0,0 v 0 0 c 0,0 0,0 0,0 z m 0,0 v 0 0 c 0.135,-0.2701 0,-0.1351 0,0 0,0 0,0 0,0 z m 0,0 v 0 0 0 z m 0,0 v 0 0 c 0,0 0,0 0,0 z m 0,0 v 0 0 0 z m 0,0 v 0 c 0,-0.1351 0.135,-0.1351 0.135,-0.1351 l -0.135,0.1351 v 0 c 0.9452,-1.0803 0.5401,-0.5402 0,0 z m 0,0 v 0 0 c 0,0 0,0 0,0 z m -329.8762,0 -2.1605,-2.9707 c -0.5401,-0.8102 -0.27,0 1.4854,2.1605 -0.1351,-0.135 0.135,0.27 0.6751,0.8102 z m 329.8762,0 2.1604,-2.9707 0.1351,-0.8102 c -0.2701,0.5402 -0.9453,1.7554 -2.2955,3.7809 z m 0,0 0.135,-0.1351 v 0 c 0,0 -0.135,0.1351 -0.135,0.1351 z m -330.0112,-0.1351 c -0.8102,-0.9452 -0.4051,-0.4051 0.135,0.1351 v 0 c -0.6751,-0.6752 -1.0802,-1.2153 -0.135,-0.1351 z m 330.0112,0.1351 v 0 l 0.27,-0.2701 c -0.135,0 -0.135,0.135 -0.27,0.2701 z m 0,0 v 0 c 1.2152,-1.3503 1.2152,-1.3503 0.9452,-1.0803 z m 0.135,-0.1351 v 0 c 0.135,-0.135 0.135,-0.135 0,0 z m 0.8102,-0.9452 c 0.135,-0.27 0,0 -0.6752,0.8102 0.2701,-0.4051 0.5401,-0.6751 0.6752,-0.8102 z m -330.9564,0.9452 v 0 c -0.1351,-0.135 -0.1351,-0.135 0,0 z m 330.1462,0 c 0,0 0,0 0,0 0.135,-0.135 0.135,-0.135 0,0 z m -330.6863,-0.6751 c -0.5402,-0.5401 -0.5402,-0.5401 0.5401,0.6751 z m -1.4854,-2.1605 -0.5401,-2.7006 c -0.135,0.5402 -0.135,1.4854 0.5401,2.7006 z m 334.7372,-2.7006 -0.405,1.8904 c 0.27,-0.405 0.135,-0.135 -0.1351,0.8102 0.6752,-1.2152 0.6752,-2.1604 0.5401,-2.7006 z m -335.2773,0 0.135,-0.27 c 0,-0.4051 0,0 -0.135,0.27 z m 335.2773,0 c -0.135,-0.27 -0.135,-0.6751 -0.135,-0.27 z m -335.0072,-0.9452 v -0.135 c 0.135,-0.2701 0.135,-0.2701 0,0.135 l -0.1351,0.6752 c 0,-0.2701 0.1351,-0.5401 0.1351,-0.6752 z m 334.8722,0.6752 -0.135,-0.6752 c -0.135,-0.27 -0.135,-0.4051 0,-0.135 v 0.135 c 0,-0.135 0,0.2701 0.135,0.6752 z m -334.8722,-0.8102 c 0,0 0,-0.135 0.135,-0.135 0.4051,-1.0803 0,-0.4051 -0.135,0.27 0,0 0,0 0,-0.135 z m 334.7372,0.135 c -0.135,-0.6751 -0.5401,-1.3503 -0.135,-0.27 0,0.135 0.135,0.135 0.135,0.27 z m -334.7372,0 1.0802,-1.8904 h -0.135 v 0 c -0.2701,0.2701 -0.4051,0.6752 -0.8102,1.6204 -0.135,0 -0.135,0.135 -0.135,0.27 z m 334.7372,-0.135 c -0.8102,-1.6203 -0.9452,-1.6203 -0.9452,-1.7554 h -0.1351 l 1.0803,1.8904 c 0,-0.135 -0.135,-0.27 0,-0.135 z m 0,0 v 0 c -0.5401,-1.0802 -0.4051,-0.6751 0,0 -0.2701,-0.4051 -0.2701,-0.5401 0,0 z m -0.135,-0.135 c 0,-0.1351 -0.1351,-0.2701 0.135,0.135 z M 136.3456,365.666 c 0.135,0.1351 0.27,0.2701 0.4051,0.5402 -0.2701,-0.4051 -0.5401,-0.6752 -0.4051,-0.5402 z m 322.5846,0 c 0,-0.135 -0.2701,0.1351 -0.4051,0.5402 0.135,-0.2701 0.27,-0.4051 0.4051,-0.5402 z m -327.7157,0.4051 v 0 c 0,0 0.135,0 0,0 h 0.135 v -0.135 0 c 0,0.135 -0.135,0.135 -0.135,0.135 z m 0,0 c 0.27,-0.27 0.135,-0.135 0,0 0.135,-0.135 0.27,-0.27 0,0 z m 332.8468,0 c 0,0 0,0 0,0 v 0 c -0.1351,-0.135 -0.2701,-0.27 0,0 z m -0.1351,-0.135 v 0 c 0,0 0,0.135 0.1351,0.135 0,0 0,0 0,0 0,0 -0.1351,0 -0.1351,-0.135 z m -332.7117,0.135 v 0 0 z m 0.135,0 h -0.135 v 0 z m 332.7118,0 c -0.1351,-0.135 -0.2701,-0.27 -0.1351,0 h 0.1351 z m -332.7118,0 v -0.135 0 z m 332.5767,0 v -0.135 c -0.27,-0.2701 -0.27,-0.135 0,0 z m 0,-0.135 v 0 0.135 z m -332.5767,0 v 0 0 c 0,0 0,0 0,0 z m 332.5767,0 v 0 0 c 0,0 0,0 0,0 z m -332.5767,0 c 0.135,-0.135 0.135,-0.135 0,0 v 0 c 0.2701,-0.2701 0.2701,-0.135 0,0 z m 332.5767,0 v 0 0 c -0.135,-0.135 -0.135,-0.135 0,0 z m -332.5767,0 v 0 c 0.135,-0.2701 0.135,-0.135 0,0 z m 332.5767,0 v 0 c -0.135,-0.135 -0.27,-0.2701 0,0 z m -332.5767,0 0.6752,-0.6751 c 0.27,-0.2701 0.6751,-0.4051 1.0802,-0.5402 -0.2701,0 -0.6752,0.2701 -1.0802,0.5402 z m 332.5767,0 -0.6751,-0.6751 c -0.4051,-0.2701 -0.9452,-0.5402 -1.0802,-0.5402 0.4051,0.1351 0.6751,0.2701 1.0802,0.5402 z m -4.996,-0.2701 0.27,-0.27 c 0.1351,-0.135 -0.135,0 -0.27,0.27 z m -322.5846,0 -0.2701,-0.27 c -0.135,-0.135 0,0 0.2701,0.27 z m -0.2701,-0.27 -0.27,-0.135 v -0.1351 c 0,0.1351 0.135,0.1351 0.27,0.2701 z m 323.3948,-0.2701 -0.135,0.1351 -0.1351,0.135 c 0.1351,-0.135 0.1351,-0.135 0.2701,-0.2701 z m -323.6648,0 c -0.2701,-0.135 -0.1351,0 0,0.1351 -0.1351,-0.1351 -0.1351,-0.1351 0,-0.1351 z m 323.6648,0 0.4051,-0.135 c 0,-0.135 -0.1351,0 -0.4051,0.135 0,0 0,0.1351 -0.135,0.1351 0.27,-0.1351 0.27,-0.1351 0.135,-0.1351 z m -323.6648,0 -0.4051,-0.135 v 0 l 0.4051,0.135 c 0,0 0,0 0,0 z m -0.4051,-0.135 -0.135,-0.135 c -0.2701,-0.1351 -0.5402,-0.1351 0,0 -0.1351,0 0,0 0.135,0.135 z m 324.61,-0.135 h -0.135 v 0.135 c 0.135,-0.135 0.27,-0.135 0.135,-0.135 z m -324.745,0 c -0.1351,0 -0.1351,0 0,0 z m 324.745,0 c 0.135,0 0.135,0 -0.135,0 0.4051,-0.1351 0.6751,-0.1351 0.135,0 z m 0.5401,-0.1351 -0.6751,0.1351 h 0.135 z m -325.8253,0 0.5402,0.1351 v 0 z m -1.4853,0 v 0 h -0.135 c 0.135,0 0.27,0 0.135,0 z m 328.931,0 h -0.1351 c -0.405,0 -0.5401,-0.135 0,0 -0.135,0 0,0 0.1351,0 z m -327.4457,0 v 0 c -0.4051,-0.135 -0.6751,-0.135 -0.135,0 -0.135,0 0,0 0.135,0 z m 325.9604,0 h -0.1351 v 0 c 0.1351,0 0.2701,0 0.1351,0 z m -327.4457,0 c 0.2701,0 0.135,0 0,0 0.2701,0 0.5401,-0.135 0,0 z m 328.7959,0 c -0.135,0 -0.27,0 0,0 z m -328.3908,0 h -0.4051 v 0 z m 327.9858,0 h 0.405 v 0 z m -326.9056,0 c -0.27,0 -0.27,0 -0.135,0 z m 325.9604,0 c 0.135,0 0.135,0 -0.1351,0 0.4051,-0.135 0.6752,-0.135 0.1351,0 z m -326.5005,0 h 0.5401 -0.135 z m 326.9055,0 h -0.5401 0.1351 z M 132.2947,275.7366 c -0.135,0 0.2701,1.8904 1.4853,3.5108 -0.8101,-1.0802 -1.3503,-2.2955 -1.4853,-3.5108 z m 330.5513,0 c 0,1.2153 -0.5401,2.4306 -1.3503,3.5108 1.2153,-1.6204 1.6204,-3.5108 1.3503,-3.5108 z m -330.5513,0 v -0.9452 c 0,-0.27 0,0.4051 0,0.9452 z m 330.5513,-0.9452 v 0.9452 c 0.135,-0.5401 0.135,-1.2152 0,-0.9452 z m -320.8292,-4.861 c 1.3503,0.9452 2.5656,2.5655 3.7808,4.9961 -0.9452,-2.2955 -2.1604,-4.0509 -3.7808,-4.9961 z m 311.2421,0 c -1.6203,0.9452 -2.8356,2.7006 -3.7808,4.9961 1.2153,-2.4306 2.4306,-4.0509 3.7808,-4.9961 z m -320.8292,3.9158 v -0.135 c 0,0.135 0,0.2701 0,0.2701 l -0.135,0.8101 c 0.135,-0.405 0.135,-0.8101 0.135,-0.9452 z m 330.4163,0.9452 v -0.8101 c 0,-0.1351 -0.135,-0.4051 0,-0.2701 -0.135,-0.2701 -0.135,-0.135 0,0.135 v 0 c 0,-0.135 0,0.2701 0,0.9452 z m -330.4163,-1.2152 c 0,-0.1351 0,0.135 0,0.4051 0,-0.5402 0.1351,-1.0803 0,-0.4051 z m 330.4163,0.4051 c 0,-0.2701 0,-0.4051 0,-0.4051 -0.135,-0.6752 0,-0.1351 0,0.4051 z m -330.4163,-0.1351 1.2153,-2.8356 c -0.2701,0.4051 -0.5401,0.8102 -1.0802,2.4305 0,0.1351 -0.1351,0.2701 -0.1351,0.4051 z m 330.2813,-0.135 c -0.8102,-2.2955 -0.9452,-2.4305 -1.0802,-2.7006 l 1.2152,2.8356 c 0,0 0,-0.135 -0.135,-0.135 z m 0,0 c 0,0 0,0 0,0 0.135,0 0.135,0 0.135,0.135 0,-0.135 -0.135,-0.135 -0.135,-0.135 z m -330.1462,-0.2701 c 0.135,-0.6751 0.135,-0.9452 -0.1351,0.1351 0,-0.1351 0,0 0,0.135 0,0 0.1351,-0.135 0.1351,-0.2701 z m 330.2812,0.1351 c -0.27,-1.0803 -0.27,-0.8102 -0.135,-0.1351 l 0.135,0.2701 z m -0.135,-0.1351 c -0.2701,-0.6751 -0.2701,-0.8101 0,0.2701 0,-0.135 0,-0.135 0,-0.2701 z m -329.066,-2.4305 v 0 0 c 0,0 0,0 0,0 z m 327.9858,0 v 0 0 c 0,0 0,0 0,0 z m -327.8508,-0.135 0.1351,-0.2701 c 0,0.1351 -0.1351,0.2701 -0.2701,0.4051 0.2701,-0.27 0.2701,-0.4051 0.135,-0.135 z m 327.4457,-0.2701 0.27,0.2701 c -0.27,-0.2701 -0.135,-0.135 0.1351,0.135 -0.1351,-0.135 -0.2701,-0.27 -0.4051,-0.4051 z m -327.5807,0.4051 0.6751,-0.6751 -0.27,0.27 -0.2701,0.2701 c 0.1351,-0.2701 0,-0.135 -0.135,0.135 z m 327.8507,-0.135 -0.27,-0.2701 -0.2701,-0.27 0.6752,0.6751 c -0.1351,-0.27 -0.2701,-0.4051 -0.1351,-0.135 z m -0.27,-0.2701 c 0,-0.135 0,-0.135 0,0 -0.4051,-0.4051 -0.1351,-0.27 0,0 z m -327.1756,0 c 0,-0.135 0,-0.135 -0.135,0 0.27,-0.27 0.405,-0.4051 0.135,0 z m 4.1859,-1.4853 c 0.2701,-0.135 0.5401,-0.135 0.8102,-0.135 -0.2701,0 -0.6752,0 -1.0803,0 -1.2152,0 -2.2955,0.27 -3.6458,1.3503 1.4854,-1.0803 2.5656,-1.3503 3.9159,-1.2153 z m 318.9388,-0.135 c -0.2701,0 -0.6752,0 -0.9452,0 0.27,0 0.5401,0 0.8102,0.135 1.3503,-0.135 2.4305,0.135 3.9158,1.2153 -1.3503,-1.0803 -2.4305,-1.3503 -3.7808,-1.3503 z m -318.1286,0 c 1.0802,0 2.0254,0.27 2.9706,0.9452 -0.9452,-0.5401 -1.8904,-0.9452 -2.9706,-0.9452 z m 317.1834,0 c -1.0802,0 -2.0254,0.27 -2.9707,0.9452 0.9453,-0.5401 1.8905,-0.9452 2.9707,-0.9452 z" />
    <g
       id="Layer1001">
      <path
         id="path4"
         style="fill:#6c2c22;fill-rule:evenodd;stroke:#fcf6e3;stroke-width:2.87229991;stroke-linecap:round;stroke-linejoin:round;stroke-dasharray:none"
         d="m 133.78,279.2474 c -3.2407,-4.456 -0.6751,-10.6673 4.456,-10.1272 8.3718,-1.4853 13.2328,16.8787 14.5831,55.0919 1.2153,36.0528 -0.405,48.4755 -12.0176,51.9862 -8.7768,1.7554 -13.908,-6.4814 -8.7768,-10.9373 1.6203,-1.2153 3.9158,-0.5402 4.726,0.9452 -0.9452,-1.8905 -3.5108,-1.8905 -4.726,-0.9452 -4.9961,4.0508 -0.2701,12.6927 8.7768,10.9373 3.7809,-0.6751 9.047,-9.317 3.6458,-16.7436 -7.5616,-8.9119 -23.9001,-3.2407 -23.225,10.1272 1.4853,6.8865 4.1859,10.9373 13.0978,13.6379 14.5832,3.5108 26.3307,-9.182 26.7358,-29.9764 0.6752,-29.3014 2.1605,-65.0841 -12.4227,-87.2289 -7.4266,-8.6418 -23.9001,-7.2915 -25.5205,7.5617 0.5401,18.3639 23.225,16.3385 23.6301,4.1859 -1.6203,-5.5362 -4.1859,-9.182 -8.7769,-8.7769 -4.861,-0.2701 -7.4266,5.9413 -4.1859,10.2622 z" />
      <path
         id="path6"
         style="fill:#6c2c22;fill-rule:evenodd;stroke:#fcf6e3;stroke-width:2.87229991;stroke-linecap:round;stroke-linejoin:round;stroke-dasharray:none"
         d="m 461.4957,279.2474 c 3.2407,-4.456 0.6752,-10.6673 -4.4559,-10.1272 -8.3718,-1.4853 -13.2329,16.8787 -14.5832,55.0919 -1.2152,36.0528 0.4051,48.4755 12.0176,51.9862 8.7769,1.7554 13.908,-6.4814 8.7769,-10.9373 -1.6203,-1.2153 -3.9158,-0.5402 -4.726,0.9452 0.9452,-1.8905 3.3757,-1.8905 4.726,-0.9452 4.8611,4.0508 0.2701,12.6927 -8.7769,10.9373 -3.7808,-0.6751 -9.0469,-9.317 -3.6458,-16.7436 7.4266,-8.9119 23.9002,-3.2407 23.225,10.1272 -1.4853,6.8865 -4.1859,10.9373 -13.0978,13.6379 -14.5831,3.5108 -26.3307,-9.182 -26.7358,-29.9764 -0.6751,-29.3014 -2.1604,-65.0841 12.4227,-87.2289 7.4266,-8.6418 23.9002,-7.2915 25.5205,7.5617 -0.6751,18.3639 -23.225,16.3385 -23.6301,4.1859 1.6204,-5.5362 4.1859,-9.182 8.6419,-8.7769 4.9961,-0.2701 7.5616,5.9413 4.3209,10.2622 z" />
    </g>
    <path
       id="path9"
       style="fill:#fdf6e3;fill-rule:evenodd"
       d="m 179.1656,272.7104 h 237.8477 l -0.249,177.4518 c 0,65.7506 -53.2979,119.0484 -119.0484,119.0484 -65.6261,0 -119.0484,-53.2978 -119.0484,-119.0484 z" />
    <g
       id="Layer1002">
      <path
         id="path11"
         style="fill:#6c2c22;fill-rule:evenodd"
         d="m 291.8783,305.1989 h 1.3722 l 0.3682,-8.2802 h 17.9726 v -12.0471 h -19.713 z" />
      <path
         id="path13"
         style="fill:#6c2c22;fill-rule:evenodd"
         d="m 333.9222,351.9458 h 7.6662 v 30.6648 h -7.6662 z m -85.4239,0 h 7.6661 v 30.6648 h -7.6661 z m 16.289,-27.5648 13.2809,0.185 v 28.475 h -8.7617 v -20.8085 h -5.476 v 6.5709 h -7.6661 v -6.5709 h -6.5712 v 6.5709 h -7.6661 v -6.5709 h -6.5712 v 27.3794 h 7.6664 v 41.617 h 40.5215 v -42.7123 h 21.9038 v 42.7123 h 42.712 v -41.617 h 6.5711 v -27.3794 h -6.5711 v 6.5709 h -7.6662 v -6.5709 h -6.5712 v 6.5709 h -7.6661 v -6.5709 h -5.4759 v 20.8085 h -7.6665 v -28.475 h 13.1424 l -30.7837,-23.157 z" />
    </g>
    <path
       id="path16"
       style="fill:#6c2c22;fill-rule:evenodd"
       d="m 216.3044,497.7508 h 14.1578 v 3.5079 h -9.9344 v 17.388 h -4.2234 z m 15.0963,10.5771 c 0,-2.1309 0.3166,-3.9162 0.9536,-5.3617 0.4768,-1.0604 1.1239,-2.0184 1.9462,-2.8653 0.8223,-0.8418 1.7225,-1.4693 2.7,-1.8777 1.3042,-0.5547 2.8024,-0.8273 4.5055,-0.8273 3.0794,0 5.5414,0.9536 7.3902,2.8659 1.8481,1.9066 2.7729,4.5632 2.7729,7.9637 0,3.3766 -0.9197,6.0131 -2.7535,7.9204 -1.8343,1.9022 -4.2862,2.8558 -7.3512,2.8558 -3.109,0 -5.5803,-0.9486 -7.4147,-2.8408 -1.8343,-1.8978 -2.749,-4.5105 -2.749,-7.833 z m 4.3447,-0.1414 c 0,2.3646 0.5497,4.16 1.6396,5.3812 1.0949,1.2212 2.4814,1.8293 4.1643,1.8293 1.6786,0 3.0606,-0.6037 4.1405,-1.8199 1.0749,-1.2111 1.6151,-3.026 1.6151,-5.449 0,-2.3934 -0.5251,-4.1788 -1.5711,-5.3611 -1.051,-1.1772 -2.4475,-1.7658 -4.1845,-1.7658 -1.7413,0 -3.1429,0.598 -4.2083,1.7903 -1.0604,1.1917 -1.5956,2.9871 -1.5956,5.395 z m 32.5867,2.7779 4.0871,1.2941 c -0.6275,2.2823 -1.6691,3.9753 -3.1284,5.0841 -1.4549,1.1044 -3.3081,1.6591 -5.5515,1.6591 -2.7728,0 -5.0545,-0.9486 -6.8398,-2.8408 -1.786,-1.8978 -2.6812,-4.491 -2.6812,-7.7746 0,-3.4784 0.9002,-6.179 2.6956,-8.1051 1.7954,-1.9223 4.155,-2.8853 7.0836,-2.8853 2.5543,0 4.6318,0.7538 6.2274,2.2672 0.9536,0.8901 1.6635,2.1748 2.1403,3.8483 l -4.1788,0.997 c -0.2431,-1.0849 -0.7589,-1.9411 -1.5473,-2.5687 -0.7833,-0.6276 -1.7369,-0.9385 -2.8558,-0.9385 -1.5472,0 -2.8068,0.5547 -3.7705,1.6685 -0.963,1.1094 -1.4448,2.9092 -1.4448,5.4 0,2.6422 0.4718,4.5249 1.4254,5.6438 0.9486,1.1238 2.1842,1.6835 3.7026,1.6835 1.1239,0 2.0869,-0.3555 2.8948,-1.0704 0.8072,-0.7105 1.3864,-1.8344 1.7413,-3.3622 z m 11.6865,7.6823 v -17.3585 h -6.1985 v -3.5374 h 16.6047 v 3.5374 h -6.1834 v 17.3585 z m 13.1847,-20.8959 h 3.9502 v 13.9097 l 8.465,-13.9097 h 4.2039 v 20.8959 h -3.9457 v -13.642 l -8.4556,13.642 h -4.2178 z m 20.9393,20.8959 v -20.8959 h 4.2227 v 8.2226 h 8.2659 v -8.2226 h 4.2178 v 20.8959 h -4.2178 v -9.1365 h -8.2659 v 9.1365 z m 21.1823,-20.8959 h 4.2184 v 8.3539 h 5.6438 c 1.4838,0 2.7584,0.1991 3.8283,0.603 1.0704,0.404 1.9612,1.1289 2.6711,2.1699 0.7155,1.0409 1.0704,2.2332 1.0704,3.5857 0,1.4154 -0.37,2.6322 -1.1138,3.6537 -0.74,1.0214 -1.5617,1.698 -2.472,2.0284 -0.9046,0.3361 -2.2326,0.5013 -3.984,0.5013 h -9.8622 z m 4.2184,17.3881 h 4.121 c 1.3086,0 2.2232,-0.0629 2.7434,-0.1898 0.5157,-0.1313 0.9781,-0.4234 1.382,-0.8757 0.404,-0.4573 0.6031,-1.012 0.6031,-1.6685 0,-0.9341 -0.326,-1.6302 -0.9875,-2.0969 -0.6615,-0.4674 -1.8488,-0.6961 -3.5707,-0.6961 h -4.2913 z m 15.6511,-17.3881 h 4.2177 v 20.8959 h -4.2177 z m 8.6503,0 h 3.9501 v 13.9097 l 8.4651,-13.9097 h 4.2039 v 20.8959 h -3.9457 v -13.642 l -8.4556,13.642 h -4.2178 z m 10.8346,-5.2002 h 1.9506 c -0.1118,1.289 -0.5641,2.3055 -1.3576,3.0405 -0.7978,0.7394 -1.8243,1.1044 -3.0888,1.1044 -1.2652,0 -2.2917,-0.365 -3.0845,-1.1044 -0.7934,-0.735 -1.2457,-1.7515 -1.3626,-3.0405 h 1.9556 c 0.0635,0.6759 0.3022,1.1816 0.7105,1.5322 0.409,0.3455 1.002,0.5207 1.781,0.5207 0.7783,0 1.372,-0.1752 1.7803,-0.5207 0.409,-0.3506 0.647,-0.8563 0.7155,-1.5322 z m -114.2286,37.8109 h 14.4399 v 17.388 h 1.8387 v 8.0667 h -3.5072 v -4.5588 h -13.1559 v 4.5588 h -3.5072 v -8.0667 h 1.7709 c 0.8606,-1.7854 1.4348,-3.8578 1.7074,-6.2224 0.2771,-2.3595 0.4134,-5.3466 0.4134,-8.9569 z m 4.0186,3.5078 c 0,6.3443 -0.5742,10.976 -1.7219,13.8802 h 7.9399 v -13.8802 z m 15.1064,-3.5078 h 8.3532 c 1.6541,0 2.8898,0.0684 3.7026,0.2092 0.8123,0.1363 1.5373,0.4234 2.1793,0.8612 0.6426,0.4379 1.1728,1.0171 1.6006,1.7464 0.4285,0.725 0.6421,1.5423 0.6421,2.4425 0,0.9781 -0.2626,1.8783 -0.7878,2.6956 -0.5302,0.8173 -1.2457,1.4304 -2.1453,1.8387 1.2696,0.3701 2.2521,1.002 2.9331,1.8928 0.686,0.8952 1.0271,1.9456 1.0271,3.1523 0,0.9486 -0.2193,1.8733 -0.6621,2.7729 -0.4423,0.8952 -1.046,1.6158 -1.8099,2.151 -0.7639,0.5346 -1.7075,0.8657 -2.8313,0.9919 -0.7005,0.0735 -2.3985,0.1219 -5.0891,0.1414 h -7.1125 z m 4.2228,3.4789 v 4.8309 h 2.7635 c 1.6446,0 2.666,-0.0245 3.065,-0.0728 0.7199,-0.083 1.289,-0.3311 1.703,-0.7445 0.4134,-0.4133 0.6175,-0.9586 0.6175,-1.6345 0,-0.6471 -0.1752,-1.1729 -0.5302,-1.5762 -0.3599,-0.4039 -0.8901,-0.6471 -1.5912,-0.73 -0.4184,-0.049 -1.6195,-0.0729 -3.6046,-0.0729 z m 0,8.3093 v 5.5853 h 3.9018 c 1.5227,0 2.4864,-0.0389 2.8947,-0.1262 0.6276,-0.1119 1.1383,-0.3945 1.5328,-0.8324 0.3939,-0.4423 0.5931,-1.0359 0.5931,-1.7753 0,-0.6276 -0.1552,-1.1584 -0.4574,-1.5963 -0.3059,-0.4378 -0.7438,-0.7588 -1.3179,-0.958 -0.5742,-0.1997 -1.8243,-0.2971 -3.7416,-0.2971 z m 15.2666,-1.2112 c 0,-2.1309 0.3166,-3.9162 0.9536,-5.3617 0.4768,-1.0604 1.1238,-2.0184 1.9462,-2.8652 0.8223,-0.8418 1.7225,-1.4694 2.7,-1.8777 1.3041,-0.5547 2.8024,-0.8274 4.5054,-0.8274 3.0795,0 5.5414,0.9536 7.3902,2.8659 1.8482,1.9066 2.7729,4.5633 2.7729,7.9637 0,3.3766 -0.9197,6.0132 -2.7534,7.9204 -1.8344,1.9022 -4.2862,2.8558 -7.3512,2.8558 -3.109,0 -5.5804,-0.9486 -7.4147,-2.8407 -1.8344,-1.8978 -2.749,-4.5105 -2.749,-7.8331 z m 4.3446,-0.1413 c 0,2.3645 0.5497,4.1599 1.6396,5.3811 1.095,1.2213 2.4814,1.8294 4.1644,1.8294 1.6785,0 3.0606,-0.6037 4.1405,-1.8199 1.0748,-1.2112 1.6151,-3.0261 1.6151,-5.4491 0,-2.3934 -0.5252,-4.1788 -1.5712,-5.361 -1.0509,-1.1773 -2.4474,-1.7659 -4.1844,-1.7659 -1.7414,0 -3.1429,0.598 -4.2083,1.7904 -1.0604,1.1917 -1.5957,2.9871 -1.5957,5.395 z m 19.2174,10.4602 v -20.8959 h 6.7676 c 2.5637,0 4.2372,0.1074 5.0162,0.3166 1.1967,0.3109 2.2037,0.9925 3.011,2.0429 0.8078,1.051 1.2118,2.4085 1.2118,4.0676 0,1.2841 -0.2337,2.3646 -0.7005,3.2352 -0.4674,0.8758 -1.056,1.5618 -1.7759,2.0631 -0.7155,0.4962 -1.4449,0.8267 -2.1843,0.9875 -1.0076,0.1991 -2.4669,0.3015 -4.3792,0.3015 h -2.7483 v 7.8815 z m 4.2184,-17.3585 v 5.9252 h 2.3061 c 1.6635,0 2.7779,-0.1068 3.337,-0.3254 0.5597,-0.2193 0.9976,-0.5598 1.3186,-1.0271 0.3166,-0.4668 0.4768,-1.0071 0.4768,-1.6246 0,-0.7588 -0.2236,-1.3864 -0.6715,-1.8827 -0.4423,-0.4919 -1.0115,-0.8028 -1.6931,-0.9247 -0.5057,-0.0974 -1.5177,-0.1407 -3.0354,-0.1407 z" />
    <g
       id="Layer1003">
      <path
         id="path18"
         style="fill:#fdf6e3;fill-rule:evenodd"
         d="m 253.5182,252.4209 c 14.1417,-16.5306 38.7592,-11.0336 55.6609,-0.3243 -29.8748,-24.9196 -59.7108,-8.2563 -75.3549,-5.3679 -7.8863,1.4571 -15.0267,-2.4976 -23.718,-2.7493 3.7958,0.8675 6.3372,4.5371 8.353,6.8974 2.0945,2.4465 3.7289,4.2171 7.3413,5.722 3.386,1.4133 6.9632,0.9804 10.3444,-0.7492 3.3087,-1.6948 8.9268,-7.6577 13.08,-8.0352 -2.7633,2.5767 -7.4222,3.9317 -7.1059,9.8644 0.2531,4.7751 3.8476,5.3763 5.144,8.6719 0.2179,-4.6571 2.2592,-9.2615 6.2552,-13.9298 z" />
      <path
         id="path20"
         style="fill:#fdf6e3;fill-rule:evenodd"
         d="m 302.4079,249.3341 c -8.11,-3.4561 -19.2061,-6.5547 -28.221,-1.8814 -7.5279,3.904 -10.1042,9.2346 -13.1127,17.4643 5.4553,-2.956 8.6755,-3.1062 16.9807,-8.2614 5.1979,-3.2216 13.4496,-10.6255 26.9451,-6.184 -10.7636,-5.391 -19.1953,0.0726 -27.8967,-0.27 6.1395,-5.2562 16.3235,-3.2328 25.3046,-0.8675 z" />
      <path
         id="path22"
         style="fill:#fdf6e3;fill-rule:evenodd"
         d="m 344.5516,252.0607 c -14.1423,16.5298 -38.7613,11.0339 -55.6633,0.3239 29.8773,24.9192 59.7133,8.2563 75.3562,5.3687 7.8853,-1.4582 15.0278,2.4975 23.7188,2.7488 -3.7972,-0.8682 -6.339,-4.5367 -8.353,-6.897 -2.0967,-2.4476 -3.7307,-4.2178 -7.341,-5.7228 -3.3859,-1.4136 -6.9656,-0.9796 -10.3458,0.7493 -3.309,1.6951 -8.9276,7.6577 -13.0793,8.0352 2.7633,-2.5767 7.4205,-3.931 7.1045,-9.8637 -0.2524,-4.7762 -3.8472,-5.377 -5.1437,-8.6727 -0.2182,4.6569 -2.2581,9.2619 -6.2534,13.9303 z" />
      <path
         id="path24"
         style="fill:#fdf6e3;fill-rule:evenodd"
         d="m 295.6609,255.1475 c 8.1096,3.456 19.2054,6.5543 28.2199,1.8817 7.5279,-3.9047 10.1042,-9.2357 13.1141,-17.465 -5.4567,2.9563 -8.6751,3.1062 -16.9811,8.261 -5.1964,3.222 -13.4495,10.6266 -26.9461,6.1844 10.7657,5.3913 19.1953,-0.0719 27.8974,0.2707 -6.1391,5.2554 -16.3231,3.2324 -25.3042,0.8672 z" />
    </g>
    <path
       id="path27"
       style="fill:#6c2c22;fill-rule:evenodd"
       d="m 225.5899,466.6039 c -0.2834,1.0623 -0.4957,1.8231 -0.637,2.2829 -0.1414,0.4605 -0.2834,0.8142 -0.4247,1.0617 -0.142,0.2481 -0.3185,0.5132 -0.5308,0.7965 -0.2124,0.2833 -0.5667,0.8142 -1.0617,1.5925 -1.2036,1.84 -1.9292,3.2208 -2.1767,4.1405 -0.2475,0.9203 -0.4071,1.6635 -0.4781,2.2301 -0.0703,0.566 -0.2475,1.0793 -0.5308,1.5391 -0.2827,0.4605 -1.0969,1.1151 -2.4418,1.9644 -0.9907,0.637 -2.1585,1.0793 -3.5035,1.3274 -1.345,0.2475 -2.3357,0.3713 -2.9727,0.3713 -1.345,0 -2.9733,-0.4775 -4.8843,-1.4336 -1.911,-0.9555 -3.4683,-2.1409 -4.6713,-3.5562 -3.3269,-3.7517 -4.9904,-10.5469 -4.9904,-20.3852 0,-0.142 0.1061,-1.4688 0.3185,-3.9816 0.2123,-2.5128 0.4605,-5.3265 0.7431,-8.4405 0.2834,-3.1146 0.5309,-6.1055 0.7432,-8.972 0.2123,-2.8665 0.3185,-4.7247 0.3185,-5.574 0,-1.4864 -0.2827,-2.2471 -0.8493,-2.2829 -0.566,-0.0352 -1.2206,0.1595 -1.9638,0.5842 -0.7431,0.4247 -1.4869,0.8669 -2.2301,1.3274 -0.7432,0.4598 -1.2916,0.4422 -1.6453,-0.0534 -0.4246,-0.708 -0.3009,-2.1409 0.3713,-4.3001 0.6728,-2.1585 1.5397,-4.3704 2.6014,-6.6357 1.0617,-2.2646 2.1767,-4.3 3.3445,-6.1048 1.1679,-1.8049 1.9996,-2.7076 2.4953,-2.7076 0.0703,0 0.3888,0.142 0.9555,0.4247 0.566,0.2833 1.0258,0.4246 1.3801,0.4246 0.7784,0 1.7339,-0.1061 2.8665,-0.3185 1.1327,-0.2123 1.8048,-0.3185 2.0172,-0.3185 1.2036,0 2.2829,0.4605 3.2384,1.3802 0.9554,0.9203 1.4335,1.9468 1.4335,3.0795 0,0.2827 -0.0534,0.6011 -0.1596,0.9555 -0.1061,0.3536 -0.1589,0.6011 -0.1589,0.7431 0,0.1414 0.0704,0.3537 0.2123,0.637 0.1414,0.2833 0.2827,0.566 0.4247,0.8493 -0.142,0.2124 -0.4605,1.8225 -0.9555,4.8309 -0.4956,3.0085 -0.9913,6.6181 -1.4869,10.8296 -0.4951,4.2115 -0.9373,8.6001 -1.3268,13.1653 -0.3895,4.5657 -0.5842,8.5473 -0.5842,11.9446 0,2.9727 0.5132,5.5206 1.5397,7.6446 1.0265,2.1233 2.5656,3.185 4.6185,3.185 1.274,0 2.8489,-0.9913 4.7247,-2.9727 1.8759,-1.9819 3.1674,-4.5306 3.8754,-7.6446 l 2.6542,-5.7336 c 0.1413,-1.5573 0.3185,-3.5569 0.5308,-5.9987 0.2124,-2.4418 0.4247,-4.866 0.637,-7.2727 0.2123,-2.4066 0.3895,-4.6009 0.5308,-6.5829 0.1414,-1.9814 0.2124,-3.2912 0.2124,-3.9282 0,-0.2833 -0.1238,-0.6904 -0.3713,-1.2212 -0.2481,-0.5308 -0.5132,-1.0617 -0.7965,-1.5925 -0.2834,-0.5308 -0.5485,-1.0258 -0.7966,-1.4863 -0.2475,-0.4599 -0.3713,-0.7959 -0.3713,-1.0083 -0.3537,0.8493 -0.4071,0.5484 -0.1595,-0.9027 0.2481,-1.4512 0.6194,-3.2208 1.115,-5.3089 0.4957,-2.0876 1.0793,-4.052 1.7521,-5.8926 0.6722,-1.84 1.2564,-2.7603 1.7514,-2.7603 0.071,0 0.3895,0.142 0.9555,0.4247 0.5666,0.2833 1.0265,0.4246 1.3808,0.4246 0.7783,0 1.7338,-0.1062 2.8665,-0.3185 1.1326,-0.2123 1.8048,-0.3185 2.0171,-0.3185 1.203,0 2.2829,0.4605 3.2384,1.3802 0.9555,0.9203 1.433,1.9468 1.433,3.0794 0,0.2827 -0.0528,0.6012 -0.159,0.9555 -0.1061,0.3537 -0.1595,0.6012 -0.1595,0.7432 0,0.1413 0.0709,0.3537 0.2123,0.637 0.142,0.2833 0.2833,0.566 0.4247,0.8493 -0.1414,0.2123 -0.4599,1.8224 -0.9555,4.8309 -0.4951,3.0078 -0.9907,6.6181 -1.4864,10.8296 -0.495,4.2115 -0.9379,8.6001 -1.3267,13.1652 -0.3895,4.5658 -0.5843,8.5467 -0.5843,11.9447 0,2.9726 0.5133,5.5206 1.5398,7.6439 1.0258,2.124 2.5655,3.1857 4.6185,3.1857 1.274,0 2.7069,-0.8852 4.3001,-2.6542 1.5924,-1.7696 2.7427,-4.2121 3.45,-7.3261 0.4247,-1.8406 0.9204,-4.4948 1.4864,-7.9631 0.5666,-3.4683 1.115,-7.0955 1.6459,-10.8823 0.5308,-3.7869 0.973,-7.4147 1.3274,-10.883 0.3536,-3.4683 0.5308,-6.0873 0.5308,-7.857 0,-0.9906 -0.071,-1.8576 -0.2123,-2.6007 -0.142,-0.7438 -0.2124,-1.4336 -0.2124,-2.0706 -0.071,0.1414 -0.0534,0.0528 0.0528,-0.2657 0.1062,-0.3185 0.2481,-0.7256 0.4247,-1.2206 0.1771,-0.4957 0.3543,-0.9737 0.5308,-1.4336 0.1771,-0.4598 0.2657,-0.7607 0.2657,-0.9027 0,-0.1413 -0.0176,-0.2123 -0.0534,-0.2123 -0.0352,0 -0.0527,-0.0704 -0.0527,-0.2124 -0.071,-0.4246 0,-0.8669 0.2123,-1.3267 0.2123,-0.4605 0.6018,-0.6904 1.1678,-0.6904 0.9203,0 1.982,0.3719 3.185,1.115 1.2036,0.7432 2.053,1.1145 2.5486,1.1145 0.1414,0 0.6012,-0.0704 1.3802,-0.2124 0.7783,-0.1413 1.3092,-0.2123 1.5925,-0.2123 0.708,0 1.3977,0.3543 2.0705,1.0623 0.6722,0.7074 0.9731,1.3444 0.9021,1.911 l -0.2123,2.4418 0.2123,2.1233 c 0.071,0.8494 -0.071,2.0348 -0.4246,3.5569 -0.3537,1.5215 -0.7608,3.2026 -1.2213,5.0432 -0.4598,1.84 -0.8845,3.7159 -1.274,5.6268 -0.3888,1.9117 -0.6194,3.6807 -0.6897,5.309 -0.071,2.4776 -0.1596,4.4062 -0.2658,5.7864 -0.1061,1.3801 -0.3009,2.4952 -0.5836,3.3445 l 0.1062,3.5035 c 0.0704,1.274 -0.0176,2.3005 -0.2657,3.0788 -0.2475,0.779 -0.3713,1.3098 -0.3713,1.5931 0,3.5387 0.3889,6.4058 1.1678,8.5995 0.7784,2.1943 1.8049,3.2918 3.0789,3.2918 0.3536,0 0.7431,-0.142 1.1678,-0.4247 0.4247,-0.2833 0.779,-0.4246 1.0617,-0.4246 0.2833,0 0.4246,0.1413 0.4246,0.4246 0,0.1414 -0.0703,0.3713 -0.2123,0.6898 -0.1414,0.3185 -0.2123,0.5484 -0.2123,0.6904 0,0.3537 0.4246,1.0617 1.274,2.1233 l 0.2123,0.9555 c 0.071,0.2123 0.0886,0.3895 0.0534,0.5308 -0.0352,0.1414 -0.0534,0.2482 -0.0534,0.3185 v 0.4247 c 0,0.2833 -0.3713,0.7256 -1.1144,1.3274 -0.7432,0.6018 -1.6108,1.203 -2.6014,1.8048 -0.9907,0.6018 -1.982,1.1151 -2.9727,1.5398 -0.9913,0.4246 -1.7345,0.6369 -2.2295,0.6369 -1.6283,0 -2.9557,-0.3184 -3.9815,-0.9554 -1.0265,-0.637 -1.8758,-1.575 -2.5486,-2.8138 -0.6722,-1.2388 -1.2206,-2.7603 -1.6453,-4.5657 -0.4247,-1.8049 -0.8852,-3.8396 -1.3802,-6.1049 -0.2833,1.0616 -0.4956,1.823 -0.637,2.2829 -0.1419,0.4598 -0.2833,0.8141 -0.4246,1.0616 -0.142,0.2482 -0.3185,0.5133 -0.5309,0.7966 -0.2129,0.2827 -0.5666,0.8135 -1.0623,1.5925 -1.203,1.84 -2.0347,3.2026 -2.4946,4.0877 -0.4604,0.8845 -0.8851,1.5749 -1.2739,2.0699 -0.3895,0.4957 -0.85,0.9379 -1.3808,1.3274 -0.5309,0.3895 -1.4688,1.0089 -2.8131,1.8582 -0.9913,0.637 -1.7697,1.1679 -2.3363,1.5925 -0.566,0.4247 -1.1678,0.637 -1.8048,0.637 -1.345,0 -2.9727,-0.478 -4.8837,-1.4335 -1.911,-0.9555 -3.4683,-2.1409 -4.6719,-3.5563 -2.4067,-2.7609 -3.9282,-6.9724 -4.5652,-12.635 z m 16.5625,-47.8835 c 0,-0.071 -0.0176,-0.1237 -0.0528,-0.1595 -0.0351,-0.0352 -0.0533,-0.088 -0.0533,-0.159 0,-0.071 0.0182,-0.071 0.0533,0 0.0352,0.071 0.0528,0.1772 0.0528,0.3185 z m -29.3031,0.8493 c 0,-0.0709 -0.0176,-0.1237 -0.0534,-0.1595 -0.0352,-0.0352 -0.0528,-0.088 -0.0528,-0.159 0,-0.0709 0.0176,-0.0709 0.0528,0 0.0358,0.071 0.0534,0.1772 0.0534,0.3185 z" />
    <path
       id="path29"
       style="fill:#6c2c22;fill-rule:evenodd"
       d="m 296.938,472.5499 c -0.2833,0.4246 -0.7608,1.2388 -1.4336,2.4418 -0.6722,1.2036 -1.4505,2.4418 -2.3356,3.7164 -0.8845,1.274 -1.8934,2.406 -3.0261,3.3973 -1.132,0.9907 -2.2647,1.4864 -3.3973,1.4864 -2.8313,0 -5.0608,-1.4154 -6.6891,-4.2467 -1.6277,-2.8313 -2.4418,-6.0521 -2.4418,-9.6617 0,-2.1944 0.2123,-4.7781 0.637,-7.7508 0.4246,-2.9727 0.9913,-6.2996 1.6986,-9.9803 0.2124,-1.0616 0.7966,-2.7961 1.7521,-5.2021 0.9555,-2.4067 2.2295,-4.5658 3.822,-6.4768 1.5931,-1.911 3.4683,-3.1322 5.6274,-3.663 2.1585,-0.5309 4.5827,0.5484 7.2727,3.2384 0.3537,0.3536 0.6722,0.5308 0.9555,0.5308 0.2123,0 0.8669,0.071 1.9644,0.2123 1.0968,0.1414 2.2647,0.4071 3.5035,0.7966 1.2388,0.3888 2.3539,0.9021 3.3445,1.5391 0.9907,0.637 1.4864,1.4511 1.4864,2.4418 0,0.142 -0.1414,0.4781 -0.4247,1.0089 -0.2833,0.5308 -0.4247,0.8669 -0.4247,1.0089 v 2.0171 c 0,1.4154 -0.4598,3.5035 -1.3801,6.2639 -0.9204,2.7609 -1.3802,5.7687 -1.3802,9.0247 0,1.416 0.2651,2.9199 0.7959,4.5124 0.5309,1.5925 1.2564,2.3891 2.1768,2.3891 0.637,0 1.3801,-0.4599 2.2295,-1.3802 0.8493,-0.9203 1.6458,-1.9292 2.389,-3.0261 0.7432,-1.0968 1.3802,-2.1057 1.911,-3.026 0.5308,-0.9203 0.8317,-1.3802 0.9027,-1.3802 0.2827,0 0.4247,0.2124 0.4247,0.637 0,0.2833 -0.0358,0.6904 -0.1062,1.2213 -0.071,0.5308 -0.1061,1.044 -0.1061,1.539 0,0.3544 0.0175,0.7614 0.0527,1.2213 0.0358,0.4598 0.0534,0.7607 0.0534,0.9027 0,0.3537 -0.2833,1.1144 -0.8493,2.2823 -0.5666,1.1678 -1.3984,2.389 -2.4952,3.663 -1.0969,1.274 -2.4243,2.4067 -3.9816,3.3973 -1.5573,0.9913 -3.3269,1.487 -5.3083,1.487 -0.9913,-0.2123 -2.1767,-0.7432 -3.5569,-1.5931 -1.3801,-0.8494 -2.6014,-2.5122 -3.663,-4.9898 z m -1.911,-29.3038 c -0.5667,0.071 -1.2388,0.9027 -2.0172,2.4952 -0.7789,1.5925 -1.5397,3.5921 -2.2829,5.9987 -0.7431,2.4067 -1.3801,5.0432 -1.911,7.9097 -0.5308,2.8671 -0.7965,5.5741 -0.7965,8.1227 0,1.3443 0.1947,2.8307 0.5842,4.459 0.3889,1.6276 0.9731,2.4418 1.7514,2.4418 0,0 0.301,-0.3895 0.9028,-1.1679 0.6018,-0.7783 1.2388,-1.752 1.911,-2.9198 0.6721,-1.1679 1.2915,-2.4595 1.8582,-3.8754 0.566,-1.4154 0.8493,-2.7603 0.8493,-4.0343 l 0.4247,-1.274 0.1061,-2.1234 c 0.071,-1.0616 0.3361,-2.4952 0.796,-4.3 0.4605,-1.8048 0.779,-3.5745 0.9561,-5.3089 0.1765,-1.7339 0.088,-3.2378 -0.2657,-4.5124 -0.3537,-1.274 -1.3092,-1.911 -2.8665,-1.911 z" />
    <path
       id="path31"
       style="fill:#6c2c22;fill-rule:evenodd"
       d="m 334.311,455.9867 c -0.3543,1.0622 -0.779,1.9468 -1.274,2.6547 l -2.2301,7.5378 c -0.9197,3.398 -1.8934,6.0873 -2.9193,8.0693 -1.0264,1.982 -1.5397,4.1053 -1.5397,6.3706 0,0.1414 0.0352,0.4599 0.1062,0.9555 0.071,0.4957 0.1061,0.8142 0.1061,0.9555 0,0.9907 -0.2833,1.5925 -0.8493,1.8048 -0.566,0.2124 -1.3801,0.3185 -2.4418,0.3185 -1.0617,0 -1.7697,-0.0885 -2.1233,-0.2651 -0.3543,-0.1771 -0.8142,-0.7965 -1.3808,-1.8582 h -1.1678 c -0.637,0 -1.1503,-0.6018 -1.5391,-1.8048 -0.3895,-1.2037 -0.5843,-2.7961 -0.5843,-4.7781 0,-4.1053 0.0352,-7.4675 0.1062,-10.0865 0.071,-2.6189 0.1771,-4.4589 0.3185,-5.5206 0.2833,-2.3357 0.4956,-4.1229 0.637,-5.3617 0.142,-1.2388 0.2123,-1.9644 0.2123,-2.1767 l -0.2123,-5.733 c -0.0704,-0.8493 -0.0352,-1.487 0.1062,-1.9116 0.1419,-0.4247 0.2123,-0.7074 0.2123,-0.8494 0,-0.2827 -0.1238,-0.6897 -0.3713,-1.2206 -0.2481,-0.5308 -0.3719,-0.7613 -0.3719,-0.6904 0,-1.203 0.4605,-1.9995 1.3802,-2.389 0.9203,-0.3889 1.7696,-0.5836 2.5486,-0.5836 l 0.7432,-0.2123 0.8493,0.4246 1.911,-0.1061 c 0.071,0 0.3537,0.1061 0.8493,0.3185 0.4957,0.2123 1.0265,0.4956 1.5925,0.8493 0.566,0.3537 1.0793,0.7607 1.5397,1.2212 0.4599,0.4599 0.6898,0.9021 0.6898,1.3268 -0.2827,0.3543 -0.6012,1.0265 -0.9555,2.0171 -0.3537,0.9913 -0.566,2.2653 -0.637,3.8227 l -0.5308,7.5384 c -0.2124,2.8307 -0.4599,5.167 -0.7432,7.007 -0.2833,1.8406 -0.4598,3.1146 -0.5308,3.8226 0.4246,-1.0623 0.9907,-2.5662 1.6986,-4.5124 0.708,-1.9468 1.4336,-3.9112 2.1768,-5.8926 0.7431,-1.9819 1.4153,-3.8226 2.0171,-5.5212 0.6018,-1.6987 0.9731,-2.8665 1.1151,-3.5035 0.566,-2.3363 0.9907,-3.734 1.274,-4.1939 0.2827,-0.4605 1.0265,-0.7966 2.2295,-1.0089 0.071,0 0.5132,-0.2123 1.3274,-0.637 0.8135,-0.4246 1.4687,-0.637 1.9637,-0.637 l 1.6987,1.0617 c 1.6283,0.9913 2.46,1.5397 2.4952,1.6459 0.0358,0.1061 0.0534,0.5484 0.0534,1.3267 0,0.071 0.1238,0.3368 0.3713,0.7966 0.2481,0.4598 0.3719,0.9027 0.3719,1.3274 0,0.4247 -0.0358,0.7073 -0.1062,0.8493 -0.637,3.256 -1.1326,6.3348 -1.4863,9.2371 -0.3543,2.9017 -0.5309,5.6268 -0.5309,8.1748 0.4951,-1.132 1.5567,-4.1756 3.185,-9.1303 0.9203,-2.6899 1.6459,-4.7781 2.1768,-6.2644 0.5308,-1.4863 0.9555,-2.7252 1.2739,-3.7158 0.3185,-0.9913 0.5661,-1.8934 0.7432,-2.7076 0.1765,-0.8141 0.3713,-1.823 0.5836,-3.026 0.2123,-1.1327 0.4429,-1.8759 0.6904,-2.2295 0.2475,-0.3543 0.3713,-1.0265 0.3713,-2.0172 0,-0.2833 0.0358,-0.4247 0.1061,-0.4247 l 1.8055,0.4247 c 0.4247,-0.2833 0.9379,-0.4781 1.5391,-0.5842 0.6018,-0.1062 2.0705,-0.3361 4.4062,-0.6898 0.4247,0.0704 0.7432,0.2123 0.9555,0.4247 0.2123,0.2123 0.8142,0.9555 1.8048,2.2295 l 0.8494,1.0616 0.3191,0.9555 c 0.1413,0.566 0.3185,0.9555 0.5308,1.1679 0.2124,0.2123 0.3185,0.3894 0.3185,0.5308 0,0.779 -0.4605,1.6283 -1.3808,2.548 0,-0.2827 -0.1765,0.3543 -0.5308,1.9116 -0.3537,1.5567 -0.7432,3.4149 -1.1678,5.574 -0.4247,2.1585 -0.796,4.2819 -1.1145,6.37 -0.3185,2.0882 -0.478,3.5217 -0.478,4.3001 0,2.4776 0.3543,4.5299 1.0616,6.1582 0.708,1.6277 1.6635,2.4419 2.8672,2.4419 0.3536,0 0.7959,-0.2834 1.3267,-0.8494 0.5308,-0.5666 1.0793,-1.1854 1.6459,-1.8582 0.566,-0.6722 1.1144,-1.2916 1.6453,-1.8582 0.5314,-0.566 0.9737,-0.8494 1.3274,-0.8494 0.3536,0 0.5308,0.1772 0.5308,0.5309 l -0.1062,1.3808 c -0.071,0.9906 -0.1061,1.7338 -0.1061,2.2295 0,0.495 0,0.8669 0,1.1144 0,0.2481 -0.0352,0.4429 -0.1062,0.5842 -0.071,0.1414 -0.2123,0.3895 -0.4247,0.7432 -0.1413,0.1413 -0.566,0.6194 -1.274,1.4335 -0.7079,0.8136 -1.6283,1.6811 -2.7603,2.6008 -1.1326,0.9203 -2.3715,1.7345 -3.7164,2.4425 -1.3444,0.7073 -2.6894,1.0616 -4.0344,1.0616 -1.3449,0 -2.4952,-0.4429 -3.4507,-1.3274 -0.9555,-0.8845 -1.752,-1.9995 -2.389,-3.3445 -0.637,-1.345 -1.0969,-2.7955 -1.3802,-4.3528 -0.2827,-1.5574 -0.4247,-3.0085 -0.4247,-4.3535 0,-0.7073 0.071,-1.5749 0.2124,-2.6007 0.142,-1.0265 0.2833,-2.0172 0.4246,-2.9733 0.142,-0.9555 0.2658,-1.8049 0.3719,-2.548 0.1062,-0.7432 0.159,-1.1854 0.159,-1.3268 0,-0.071 -0.0176,-0.2657 -0.0528,-0.5842 -0.0358,-0.3185 -0.0886,-0.7256 -0.1596,-1.2212 -0.8493,1.6992 -1.4863,3.0084 -1.9109,3.9287 -0.4247,0.9204 -0.7784,1.8225 -1.0617,2.7076 -0.2833,0.8845 -0.5842,1.9286 -0.9027,3.1316 -0.3185,1.2036 -0.8311,2.9733 -1.5391,5.3089 -0.5667,1.911 -1.0265,3.4507 -1.3802,4.6186 -0.3543,1.1678 -0.5308,2.0347 -0.5308,2.6007 l 0.1061,3.2918 -0.7431,1.3802 v 0.637 c 0,0.4956 -0.2482,0.7431 -0.7438,0.7431 0.5666,0 0.4253,-0.071 -0.4247,-0.2123 -0.8493,-0.1413 -1.8934,-0.4781 -3.1316,-1.0089 -1.2388,-0.5308 -2.4242,-1.3092 -3.5569,-2.3356 -1.1326,-1.0265 -1.6986,-2.4243 -1.6986,-4.1939 0,-1.5567 0.0703,-3.3264 0.2123,-5.3083 0.1414,-1.982 0.2827,-3.8754 0.4247,-5.6803 0.1413,-1.8048 0.2827,-3.3979 0.4246,-4.7781 0.1414,-1.3801 0.2124,-2.2119 0.2124,-2.4946 0,-0.1419 0,-0.3543 0,-0.637 0,-0.2833 -0.0358,-0.6376 -0.1062,-1.0622 z" />
    <path
       id="path33"
       style="fill:#6c2c22;fill-rule:evenodd"
       d="m 392.5994,473.3992 c -0.495,0.9203 -1.1144,1.9644 -1.8576,3.1322 -0.7431,1.1678 -1.5573,2.2829 -2.4424,3.3446 -0.8845,1.0616 -1.8048,1.9461 -2.7603,2.6541 -0.9555,0.708 -1.8934,0.9907 -2.8138,0.8493 l -3.3973,-0.4246 h -1.5925 c -1.1326,0 -2.1943,-0.4423 -3.185,-1.3274 -0.9913,-0.8845 -1.823,-2.0172 -2.4952,-3.3973 -0.6728,-1.3802 -1.2036,-2.9375 -1.5925,-4.6714 -0.3895,-1.7344 -0.5842,-3.4155 -0.5842,-5.0432 0,-1.2036 0.0534,-2.7075 0.1596,-4.5123 0.1061,-1.8049 0.2651,-3.6631 0.4774,-5.5741 0.2123,-1.9116 0.4605,-3.7516 0.7432,-5.5213 0.2833,-1.7696 0.6018,-3.2201 0.9555,-4.3528 0.3543,-1.1326 0.588,-2.3237 0.9554,-3.5041 0.6207,-1.992 1.4914,-5.1462 5.946,-5.4145 0,0 0.2833,-0.1061 0.8493,-0.3185 0.566,-0.2123 1.1678,-0.3185 1.8048,-0.3185 h 1.4864 c 0.5666,0 1.0974,-0.2481 1.5931,-0.7431 0.495,-0.4957 1.2382,-0.7432 2.2295,-0.7432 1.345,0 2.7955,0.2475 4.3528,0.7432 0.779,0.2123 1.5221,0.8493 2.2295,1.911 0.708,1.0616 1.3098,2.2646 1.8054,3.6096 0.4951,1.345 0.8846,2.7252 1.1679,4.1411 0.2827,1.4154 0.4246,2.619 0.4246,3.6097 0,2.2653 -0.5666,5.8749 -1.6986,10.8296 -0.3543,1.8406 -0.5076,3.5575 -0.7966,5.0966 -0.3895,2.0712 -0.8826,4.1078 -1.9644,5.9453 z m -3.6096,-3.185 c 1.3801,-2.4104 2.1371,-6.7262 2.8665,-10.0337 0.071,-0.3185 0.1061,-0.7073 0.1061,-1.1678 0,-0.4598 0,-1.1854 0,-2.1761 v -1.9116 c 0,-1.132 -0.2123,-2.619 -0.637,-4.459 -0.4246,-1.8406 -0.8493,-3.1146 -1.274,-3.822 -1.6056,-3.5035 -3.5807,-4.3346 -6.0521,-1.5931 -0.5679,0.6301 -1.5039,1.0441 -1.9637,3.1322 -0.4605,2.0882 -0.8318,4.4596 -1.1151,7.1138 -0.2833,2.6541 -0.4598,5.2204 -0.5308,7.6974 -0.071,2.4776 -0.1062,4.0701 -0.1062,4.7781 0,2.477 0.3185,4.6361 0.9555,6.4761 0.637,1.8406 1.4512,2.7603 2.4418,2.7603 1.487,0 2.4953,-0.6546 3.0261,-1.9637 0.5308,-1.3098 1.2922,-2.9199 2.2829,-4.8309 z" />
  </g>
</svg>
